{
  "title": "KL 10 Pathu Malayalam Movie (2015) DVDRip x264 AAC - Exclusive.m",
  "uid": 12445429,
  "size": 1054357431,
  "categoryP": "video",
  "categoryS": "movies",
  "magnet": "?xt=urn:btih:4ea69b7b8bf4f685f04b2ca129dde74baf0410b7&amp;dn=KL+10+Pathu+Malayalam+Movie+%282015%29+DVDRip+x264+AAC+-+Exclusive.m&amp;tr=udp%3A%2F%2Ftracker.openbittorrent.com%3A80&amp;tr=udp%3A%2F%2Fopen.demonii.com%3A1337&amp;tr=udp%3A%2F%2Ftracker.coppersurfer.tk%3A6969&amp;tr=udp%3A%2F%2Fexodus.desync.com%3A6969",
  "seeders": 1251,
  "leechers": 233,
  "uploader": "tykoon123",
  "files": 1,
  "time": 1442622408,
  "description": " &lt;a href=&quot;http://www.imgpuppy.com/images/2015/09/18/KL-10-Movie-Poster-1600x1132.jpg&quot; rel=&quot;nofollow&quot; target=&quot;_NEW&quot;&gt;http://www.imgpuppy.com/images/2015/09/18/KL-10-Movie-Poster-1600x1132.jpg&lt;/a&gt;\n\nFormat : Matroska \nFormat version : Version 2 \nFile size : 1 006 MiB \nDuration : 2h 10mn \nOverall bit rate : 1 079 Kbps \nWriting application : HandBrake 0.9.5 \nWriting library : libmkv 0.6.4.1 \n\nVideo \nID : 1 \nFormat : AVC \nFormat/Info : Advanced Video Codec \nFormat profile : &lt;a class=&quot;__cf_email__&quot; href=&quot;/cdn-cgi/l/email-protection&quot; data-cfemail=&quot;5119383639111d627f61&quot;&gt;[email&amp;#160;protected]&lt;/a&gt;&lt;script data-cfhash='f9e31' type=&quot;text/javascript&quot;&gt;\n/* &lt;![CDATA[ */!function(){try{var t=&quot;currentScript&quot;in document?document.currentScript:function(){for(var t=document.getElementsByTagName(&quot;script&quot;),e=t.length;e--;)if(t[e].getAttribute(&quot;data-cfhash&quot;))return t[e]}();if(t&amp;&amp;t.previousSibling){var e,r,n,i,c=t.previousSibling,a=c.getAttribute(&quot;data-cfemail&quot;);if(a){for(e=&quot;&quot;,r=parseInt(a.substr(0,2),16),n=2;a.length-n;n+=2)i=parseInt(a.substr(n,2),16)^r,e+=String.fromCharCode(i);e=document.createTextNode(e),c.parentNode.replaceChild(e,c)}t.parentNode.removeChild(t);}}catch(u){}}()/* ]]&gt; */&lt;/script&gt; \nFormat settings, CABAC : Yes \nFormat settings, ReFrames : 4 frames \nCodec ID : V_MPEG4/ISO/AVC \nDuration : 2h 10mn \nBit rate : 846 Kbps \nWidth : 848 pixels \nHeight : 352 pixels \nDisplay aspect ratio : 2.35:1 \nOriginal display aspect rat : 2.35:1 \nFrame rate mode : Constant \nFrame rate : 23.220 fps \nColor space : YUV \nChroma subsampling : 4:2:0 \nBit depth : 8 bits \nScan type : Progressive \nBits/(Pixel*Frame) : 0.122 \nStream size : 777 MiB (77%) \n\nAudio \nID : 2 \nFormat : AC-3 \nFormat/Info : Audio Coding 3 \nMode extension : CM (complete main) \nFormat settings, Endianness : Big \nCodec ID : A_AC3 \nDuration : 2h 10mn \nBit rate mode : Constant \nBit rate : 224 Kbps \nChannel(s) : 2 channels \nChannel positions : Front: L R \nSampling rate : 44.1 KHz \nBit depth : 16 bits \nCompression mode : Lossy \nStream size : 209 MiB (21%) \nDefault : Yes \nForced : No \n\nScreens:  &lt;a href=&quot;\nhttp://www.imgpuppy.com/image/w00p&quot; rel=&quot;nofollow&quot; target=&quot;_NEW&quot;&gt;\nhttp://www.imgpuppy.com/image/w00p&lt;/a&gt; &lt;a href=&quot;\nhttp://www.imgpuppy.com/image/w8LI&quot; rel=&quot;nofollow&quot; target=&quot;_NEW&quot;&gt;\nhttp://www.imgpuppy.com/image/w8LI&lt;/a&gt; &lt;a href=&quot;\nhttp://www.imgpuppy.com/image/wXai&quot; rel=&quot;nofollow&quot; target=&quot;_NEW&quot;&gt;\nhttp://www.imgpuppy.com/image/wXai&lt;/a&gt; &lt;a href=&quot;\nhttp://www.imgpuppy.com/image/wfdg&quot; rel=&quot;nofollow&quot; target=&quot;_NEW&quot;&gt;\nhttp://www.imgpuppy.com/image/wfdg&lt;/a&gt; &lt;a href=&quot;\nhttp://www.imgpuppy.com/image/wlPw&quot; rel=&quot;nofollow&quot; target=&quot;_NEW&quot;&gt;\nhttp://www.imgpuppy.com/image/wlPw&lt;/a&gt;",
  "parsed": {
    "xt": "urn:btih:4ea69b7b8bf4f685f04b2ca129dde74baf0410b7",
    "dn": "KL 10 Pathu Malayalam Movie (2015) DVDRip x264 AAC - Exclusive.m",
    "tr": [
      "udp://exodus.desync.com:6969",
      "udp://open.demonii.com:1337",
      "udp://tracker.coppersurfer.tk:6969",
      "udp://tracker.openbittorrent.com:80"
    ],
    "infoHash": "4ea69b7b8bf4f685f04b2ca129dde74baf0410b7",
    "infoHashBuffer": {
      "type": "Buffer",
      "data": [
        78,
        166,
        155,
        123,
        139,
        244,
        246,
        133,
        240,
        75,
        44,
        161,
        41,
        221,
        231,
        75,
        175,
        4,
        16,
        183
      ]
    },
    "name": "KL 10 Pathu Malayalam Movie (2015) DVDRip x264 AAC - Exclusive.m",
    "announce": [
      "udp://exodus.desync.com:6969",
      "udp://open.demonii.com:1337",
      "udp://tracker.coppersurfer.tk:6969",
      "udp://tracker.openbittorrent.com:80"
    ],
    "urlList": []
  },
  "previous": 1484,
  "peers": 5,
  "last_updated": "2016-12-25T00:43:23.064Z"
}